<svg fill="#000000" xmlns="http://www.w3.org/2000/svg"  viewBox="0 0 50 50" width="50px" height="50px"><path d="M 24.90625 2 C 24.703125 2.035156 24.519531 2.136719 24.375 2.28125 C 22.730469 3.832031 18.441406 6.574219 14.03125 9.03125 C 9.621094 11.488281 5.007813 13.742188 2.71875 14.53125 C 2.378906 14.65625 2.136719 14.953125 2.078125 15.308594 C 2.019531 15.664063 2.15625 16.023438 2.4375 16.25 L 17 27.28125 C 15.765625 26.765625 14.394531 26.320313 12.875 26.15625 C 9.628906 25.808594 5.835938 26.636719 2.3125 29.84375 C 2.097656 30.046875 1.984375 30.335938 2 30.632813 C 2.019531 30.925781 2.167969 31.199219 2.40625 31.375 L 24.28125 47.8125 C 24.667969 48.105469 25.207031 48.078125 25.5625 47.75 C 27.449219 46.046875 31.667969 43.210938 35.90625 40.6875 C 40.144531 38.164063 44.503906 35.878906 46.4375 35.25 C 46.78125 35.132813 47.035156 34.839844 47.097656 34.480469 C 47.164063 34.125 47.03125 33.761719 46.75 33.53125 L 32.90625 23.0625 C 33.261719 23.160156 33.617188 23.261719 34.0625 23.34375 C 35.285156 23.570313 36.796875 23.742188 38.4375 23.6875 C 41.722656 23.578125 45.554688 22.605469 47.8125 19.4375 C 48.121094 18.996094 48.027344 18.386719 47.59375 18.0625 L 25.65625 2.1875 C 25.441406 2.027344 25.171875 1.960938 24.90625 2 Z M 25.0625 4.21875 L 45.5 19 C 43.699219 20.855469 40.984375 21.597656 38.375 21.6875 C 36.902344 21.738281 35.492188 21.578125 34.40625 21.375 C 33.863281 21.273438 33.402344 21.171875 33.0625 21.0625 C 32.746094 20.960938 32.554688 20.863281 32.5625 20.875 L 32.53125 20.84375 L 21.375 12.46875 C 21.027344 12.199219 20.546875 12.1875 20.1875 12.4375 L 18.875 13.3125 C 18.609375 13.496094 18.449219 13.792969 18.441406 14.117188 C 18.4375 14.4375 18.585938 14.746094 18.84375 14.9375 L 44.1875 34.125 C 41.722656 35.164063 38.453125 36.859375 34.90625 38.96875 C 30.933594 41.335938 27.175781 43.839844 24.90625 45.75 L 4.65625 30.59375 C 7.453125 28.441406 10.214844 27.859375 12.6875 28.125 C 15.453125 28.421875 17.859375 29.714844 19.3125 30.8125 L 28.875 38.03125 C 29.261719 38.324219 29.800781 38.296875 30.15625 37.96875 L 31.21875 37 C 31.433594 36.796875 31.546875 36.507813 31.53125 36.210938 C 31.511719 35.917969 31.363281 35.644531 31.125 35.46875 L 4.9375 15.65625 C 7.613281 14.582031 11.128906 12.9375 15 10.78125 C 19.128906 8.484375 22.886719 6.082031 25.0625 4.21875 Z"/></svg>